<svg width="76" height="91" viewBox="0 0 76 91" fill="none" xmlns="http://www.w3.org/2000/svg">
<g clip-path="url(#clip0_41_62)">
<path d="M23.7748 78.764C23.332 78.215 22.7425 77.803 22.0747 77.576C22.5984 77.33 23.0433 76.9433 23.3597 76.459C23.651 75.9914 23.8017 75.4498 23.7938 74.899C23.8012 74.4304 23.6885 73.9677 23.4666 73.555C23.2446 73.1422 22.9208 72.7932 22.5257 72.541C21.3931 71.8756 20.0864 71.5665 18.7757 71.654H12.1458V84.065H19.1307C20.4904 84.148 21.845 83.8355 23.0308 83.165C23.4575 82.8994 23.8067 82.5261 24.0433 82.0827C24.28 81.6392 24.3956 81.1413 24.3787 80.639C24.3955 79.9636 24.1826 79.3025 23.7748 78.764ZM16.2578 74.58H18.2078C19.1178 74.58 19.5727 74.8873 19.5727 75.502C19.5727 76.1166 19.1178 76.424 18.2078 76.424H16.2578V74.58ZM18.7748 81.14H16.2578V79.19H18.7748C19.6968 79.19 20.1578 79.515 20.1578 80.165C20.1578 80.815 19.6968 81.14 18.7748 81.14Z" fill="#231F20"/>
<path d="M26.9849 82.807C26.4334 82.2359 26.0064 81.5565 25.731 80.8119C25.4556 80.0672 25.3377 79.2735 25.3849 78.481V71.655H29.5689V78.355C29.5116 79.0524 29.6829 79.7495 30.0569 80.341C30.2359 80.5365 30.4537 80.6927 30.6963 80.7995C30.939 80.9064 31.2012 80.9615 31.4664 80.9615C31.7315 80.9615 31.9938 80.9064 32.2364 80.7995C32.4791 80.6927 32.6968 80.5365 32.8759 80.341C33.2498 79.7495 33.4211 79.0524 33.3639 78.355V71.655H37.4769V78.481C37.524 79.2735 37.4062 80.0672 37.1308 80.8119C36.8554 81.5565 36.4284 82.2359 35.8769 82.807C34.6088 83.8062 33.0413 84.3495 31.4269 84.3495C29.8124 84.3495 28.245 83.8062 26.9769 82.807H26.9849Z" fill="#231F20"/>
<path d="M43.2248 71.655H39.0408V84.066H43.2248V71.655Z" fill="#231F20"/>
<path d="M44.8909 71.655H49.0749V80.821H54.6749V84.066H44.8879L44.8909 71.655Z" fill="#231F20"/>
<path d="M67.7178 74.563C67.123 73.621 66.2669 72.8726 65.2538 72.409C64.1052 71.8872 62.8542 71.6295 61.5928 71.655H55.4758V84.066H61.5928C62.8542 84.0914 64.1052 83.8338 65.2538 83.312C66.267 82.8487 67.1233 82.1002 67.7178 81.158C68.2937 80.1535 68.5967 79.0158 68.5967 77.858C68.5967 76.7001 68.2937 75.5625 67.7178 74.558V74.563ZM63.5688 80.032C63.278 80.2957 62.9382 80.4995 62.5686 80.6318C62.199 80.7641 61.8069 80.8223 61.4148 80.803H59.6588V74.918H61.4148C61.8069 74.8987 62.199 74.9569 62.5686 75.0892C62.9382 75.2214 63.278 75.4253 63.5688 75.689C64.0895 76.2928 64.376 77.0636 64.376 77.861C64.376 78.6583 64.0895 79.4281 63.5688 80.032Z" fill="#231F20"/>
<path d="M6.59082 75.662V78.648L10.5978 74.641V71.658L6.59082 75.662Z" fill="#231F20"/>
<path d="M10.6027 84.066V75.695L6.5957 79.702V84.066H10.6027Z" fill="#231F20"/>
<path d="M67.6229 -0.00402832H26.3539C19.3667 0.00470766 12.6682 2.78471 7.72813 7.7261C2.78805 12.6675 0.00980979 19.3667 0.00292969 26.354V83.096C0.00531152 85.1024 0.803416 87.026 2.22218 88.4447C3.64093 89.8635 5.5645 90.6616 7.57092 90.664H67.6229C69.6293 90.6616 71.5529 89.8635 72.9717 88.4447C74.3904 87.026 75.1886 85.1024 75.1909 83.096V7.56796C75.1896 5.56084 74.392 3.63624 72.9731 2.21661C71.5542 0.79699 69.63 -0.00164469 67.6229 -0.00402832ZM74.0549 83.089C74.0531 84.7943 73.3748 86.4292 72.169 87.635C70.9632 88.8409 69.3282 89.5191 67.6229 89.521H7.56792C5.86262 89.5191 4.2277 88.8409 3.02187 87.635C1.81603 86.4292 1.13778 84.7943 1.13593 83.089V26.354C1.1436 19.6681 3.80296 13.2582 8.53059 8.53061C13.2582 3.80298 19.6681 1.14363 26.3539 1.13596H67.6229C69.3282 1.13781 70.9632 1.81608 72.169 3.02191C73.3748 4.22774 74.0531 5.86266 74.0549 7.56796V83.089Z" fill="#231F20"/>
<path d="M66.16 6.73297H27.8179C25.031 6.73297 22.2714 7.28188 19.6966 8.34839C17.1219 9.41489 14.7824 10.9781 12.8117 12.9487C10.8411 14.9194 9.27788 17.2589 8.21137 19.8336C7.14487 22.4084 6.59595 25.168 6.59595 27.955V66.297C6.59595 66.943 6.85259 67.5626 7.30943 68.0195C7.76627 68.4763 8.38588 68.733 9.03194 68.733H66.16C66.806 68.733 67.4256 68.4763 67.8825 68.0195C68.3393 67.5626 68.5959 66.943 68.5959 66.297V9.17096C68.5962 8.85089 68.5334 8.53391 68.4111 8.23813C68.2888 7.94235 68.1094 7.67356 67.8832 7.44714C67.6569 7.22073 67.3883 7.04112 67.0926 6.91858C66.7969 6.79603 66.48 6.73297 66.16 6.73297ZM27.4699 60.502H17.1039V48.069L27.4689 37.7039L27.4699 60.502ZM27.4699 36.442L17.1049 46.8069V39.093L27.4699 28.728V36.442ZM58.091 48.466V60.504H30.0559V24.881L39.9709 14.966L45.423 20.418V58.5179H53.1679V49.6949L46.8739 43.401V36.446L58.091 47.657V48.466Z" fill="#F9AE42"/>
<path d="M38.7339 19.014V58.514H40.1909V17.996L39.9719 17.777L38.7339 19.014Z" fill="#F9AE42"/>
<path d="M19.092 42.012L25.482 35.6219V33.522L19.092 39.912V42.012Z" fill="#F9AE42"/>
<path d="M55.1561 48.8709V58.5169H56.0991V48.4799L48.8621 41.243V42.5759L54.5741 48.2879L55.1561 48.8709Z" fill="#F9AE42"/>
<path d="M19.092 58.517H25.482V42.503L19.092 48.8929V58.517Z" fill="#F9AE42"/>
<path d="M35.2891 58.516H36.7461V21.002L35.2891 22.459V58.516Z" fill="#F9AE42"/>
</g>
<defs>
<clipPath id="clip0_41_62">
<rect width="75.191" height="90.662" fill="white"/>
</clipPath>
</defs>
</svg>
