<svg width="16" height="17" viewBox="0 0 16 17" fill="none" xmlns="http://www.w3.org/2000/svg">
<g clip-path="url(#clip0_180_1000)">
<path d="M8.71875 12.0859C8.71875 12.8183 9.2795 13.4141 9.96875 13.4141H11.4375C12.1267 13.4141 12.6875 12.8183 12.6875 12.0859V10.5254C12.6875 9.79306 12.1267 9.19727 11.4375 9.19727H9.96875C9.2795 9.19727 8.71875 9.79306 8.71875 10.5254V12.0859ZM9.96875 10.5254H11.4375L11.4383 12.0859C11.4383 12.0859 11.4381 12.0859 11.4375 12.0859H9.96875V10.5254Z" fill="#475467"/>
<path d="M12.0625 7.63672C12.4077 7.63672 12.6875 7.33941 12.6875 6.97266C12.6875 6.6059 12.4077 6.30859 12.0625 6.30859C11.7173 6.30859 11.4375 6.6059 11.4375 6.97266C11.4375 7.33941 11.7173 7.63672 12.0625 7.63672Z" fill="#475467"/>
<path d="M9.34375 7.63672C9.68893 7.63672 9.96875 7.33941 9.96875 6.97266C9.96875 6.6059 9.68893 6.30859 9.34375 6.30859C8.99857 6.30859 8.71875 6.6059 8.71875 6.97266C8.71875 7.33941 8.99857 7.63672 9.34375 7.63672Z" fill="#475467"/>
<path d="M15.375 11.6875C15.7202 11.6875 16 11.3902 16 11.0234V3.98438C16 2.51972 14.8785 1.32812 13.5 1.32812H12.6875V0.664062C12.6875 0.297301 12.4077 0 12.0625 0C11.7173 0 11.4375 0.297301 11.4375 0.664062V1.32812H8.59375V0.664062C8.59375 0.297301 8.31394 0 7.96875 0C7.62356 0 7.34375 0.297301 7.34375 0.664062V1.32812H4.53125V0.664062C4.53125 0.297301 4.25144 0 3.90625 0C3.56106 0 3.28125 0.297301 3.28125 0.664062V1.32812H2.5C1.1215 1.32812 0 2.51972 0 3.98438V14.3438C0 15.8084 1.1215 17 2.5 17H13.5C14.8785 17 16 15.8084 16 14.3438C16 13.977 15.7202 13.6797 15.375 13.6797C15.0298 13.6797 14.75 13.977 14.75 14.3438C14.75 15.0761 14.1892 15.6719 13.5 15.6719H2.5C1.81075 15.6719 1.25 15.0761 1.25 14.3438V3.98438C1.25 3.25205 1.81075 2.65625 2.5 2.65625H3.28125V3.32031C3.28125 3.68707 3.56106 3.98438 3.90625 3.98438C4.25144 3.98438 4.53125 3.68707 4.53125 3.32031V2.65625H7.34375V3.32031C7.34375 3.68707 7.62356 3.98438 7.96875 3.98438C8.31394 3.98438 8.59375 3.68707 8.59375 3.32031V2.65625H11.4375V3.32031C11.4375 3.68707 11.7173 3.98438 12.0625 3.98438C12.4077 3.98438 12.6875 3.68707 12.6875 3.32031V2.65625H13.5C14.1892 2.65625 14.75 3.25205 14.75 3.98438V11.0234C14.75 11.3902 15.0298 11.6875 15.375 11.6875Z" fill="#475467"/>
<path d="M3.90625 13.4141C4.25143 13.4141 4.53125 13.1168 4.53125 12.75C4.53125 12.3832 4.25143 12.0859 3.90625 12.0859C3.56107 12.0859 3.28125 12.3832 3.28125 12.75C3.28125 13.1168 3.56107 13.4141 3.90625 13.4141Z" fill="#475467"/>
<path d="M3.90625 7.63672C4.25143 7.63672 4.53125 7.33941 4.53125 6.97266C4.53125 6.6059 4.25143 6.30859 3.90625 6.30859C3.56107 6.30859 3.28125 6.6059 3.28125 6.97266C3.28125 7.33941 3.56107 7.63672 3.90625 7.63672Z" fill="#475467"/>
<path d="M3.90625 10.5254C4.25143 10.5254 4.53125 10.2281 4.53125 9.86133C4.53125 9.49458 4.25143 9.19727 3.90625 9.19727C3.56107 9.19727 3.28125 9.49458 3.28125 9.86133C3.28125 10.2281 3.56107 10.5254 3.90625 10.5254Z" fill="#475467"/>
<path d="M6.625 10.5254C6.97018 10.5254 7.25 10.2281 7.25 9.86133C7.25 9.49458 6.97018 9.19727 6.625 9.19727C6.27982 9.19727 6 9.49458 6 9.86133C6 10.2281 6.27982 10.5254 6.625 10.5254Z" fill="#475467"/>
<path d="M6.625 7.63672C6.97018 7.63672 7.25 7.33941 7.25 6.97266C7.25 6.6059 6.97018 6.30859 6.625 6.30859C6.27982 6.30859 6 6.6059 6 6.97266C6 7.33941 6.27982 7.63672 6.625 7.63672Z" fill="#475467"/>
<path d="M6.625 13.4141C6.97018 13.4141 7.25 13.1168 7.25 12.75C7.25 12.3832 6.97018 12.0859 6.625 12.0859C6.27982 12.0859 6 12.3832 6 12.75C6 13.1168 6.27982 13.4141 6.625 13.4141Z" fill="#475467"/>
</g>
<defs>
<clipPath id="clip0_180_1000">
<rect width="16" height="17" fill="white"/>
</clipPath>
</defs>
</svg>
