<svg width="16" height="17" viewBox="0 0 16 17" fill="none" xmlns="http://www.w3.org/2000/svg">
<g clip-path="url(#clip0_180_1037)">
<mask id="mask0_180_1037" style="mask-type:luminance" maskUnits="userSpaceOnUse" x="0" y="0" width="16" height="17">
<path d="M16 0H0V17H16V0Z" fill="white"/>
</mask>
<g mask="url(#mask0_180_1037)">
<path d="M15.38 11.69C15.73 11.69 16 11.39 16 11.03V3.98C16 2.52 14.88 1.32 13.5 1.32H12.69V0.66C12.69 0.29 12.41 0 12.07 0C11.73 0 11.45 0.3 11.45 0.66V1.32H8.61V0.66C8.61 0.29 8.33 0 7.99 0C7.65 0 7.37 0.3 7.37 0.66V1.32H4.56V0.66C4.56 0.29 4.28 0 3.94 0C3.6 0 3.32 0.3 3.32 0.66V1.32H2.54C1.12 1.33 0 2.52 0 3.98V14.34C0 15.8 1.12 17 2.5 17H13.5C14.88 17 16 15.81 16 14.34C16 13.97 15.72 13.68 15.38 13.68C15.04 13.68 14.76 13.98 14.76 14.34C14.76 15.07 14.2 15.67 13.51 15.67H2.5C1.81 15.67 1.25 15.07 1.25 14.34V3.98C1.25 3.25 1.81 2.65 2.5 2.65H3.28V3.31C3.28 3.68 3.56 3.97 3.9 3.97C4.24 3.97 4.52 3.67 4.52 3.31V2.65H7.33V3.31C7.33 3.68 7.61 3.97 7.95 3.97C8.29 3.97 8.57 3.67 8.57 3.31V2.65H11.41V3.31C11.41 3.68 11.69 3.97 12.03 3.97C12.37 3.97 12.65 3.67 12.65 3.31V2.65H13.46C14.15 2.65 14.71 3.25 14.71 3.98V11.02C14.71 11.39 14.99 11.68 15.33 11.68L15.38 11.69Z" fill="#F9AE42"/>
</g>
<path d="M14.8 13.82H0.790039V16.32H14.8V13.82Z" fill="#F9AE42"/>
<path d="M10.8804 11.03V12.59H12.3504V11.03H10.8804Z" fill="#F9AE42"/>
<path d="M0.990234 2.16V14.84H15.0002V2.16H0.990234ZM13.5902 12.58C13.5902 13.31 13.0302 13.91 12.3402 13.91H10.8702C10.1802 13.91 9.62023 13.31 9.62023 12.58V11.02C9.62023 10.29 10.1802 9.69 10.8702 9.69H12.3402C13.0302 9.69 13.5902 10.29 13.5902 11.02V12.58Z" fill="#F9AE42"/>
<path d="M4.48004 5.09C4.48004 4.41621 3.93383 3.87 3.26004 3.87C2.58625 3.87 2.04004 4.41621 2.04004 5.09C2.04004 5.76378 2.58625 6.31 3.26004 6.31C3.93383 6.31 4.48004 5.76378 4.48004 5.09Z" fill="white"/>
<path d="M7.56012 5.09C7.56012 4.41621 7.0139 3.87 6.34012 3.87C5.66633 3.87 5.12012 4.41621 5.12012 5.09C5.12012 5.76378 5.66633 6.31 6.34012 6.31C7.0139 6.31 7.56012 5.76378 7.56012 5.09Z" fill="white"/>
<path d="M4.48004 9.53C4.48004 8.85621 3.93383 8.31 3.26004 8.31C2.58625 8.31 2.04004 8.85621 2.04004 9.53C2.04004 10.2038 2.58625 10.75 3.26004 10.75C3.93383 10.75 4.48004 10.2038 4.48004 9.53Z" fill="white"/>
<path d="M7.56012 9.53C7.56012 8.85621 7.0139 8.31 6.34012 8.31C5.66633 8.31 5.12012 8.85621 5.12012 9.53C5.12012 10.2038 5.66633 10.75 6.34012 10.75C7.0139 10.75 7.56012 10.2038 7.56012 9.53Z" fill="white"/>
<path d="M4.48004 13.76C4.48004 13.0862 3.93383 12.54 3.26004 12.54C2.58625 12.54 2.04004 13.0862 2.04004 13.76C2.04004 14.4338 2.58625 14.98 3.26004 14.98C3.93383 14.98 4.48004 14.4338 4.48004 13.76Z" fill="white"/>
<path d="M7.56012 13.76C7.56012 13.0862 7.0139 12.54 6.34012 12.54C5.66633 12.54 5.12012 13.0862 5.12012 13.76C5.12012 14.4338 5.66633 14.98 6.34012 14.98C7.0139 14.98 7.56012 14.4338 7.56012 13.76Z" fill="white"/>
<path d="M10.65 5.09C10.65 4.41621 10.1037 3.87 9.42996 3.87C8.75617 3.87 8.20996 4.41621 8.20996 5.09C8.20996 5.76378 8.75617 6.31 9.42996 6.31C10.1037 6.31 10.65 5.76378 10.65 5.09Z" fill="white"/>
<path d="M13.73 5.09C13.73 4.41621 13.1838 3.87 12.51 3.87C11.8363 3.87 11.29 4.41621 11.29 5.09C11.29 5.76378 11.8363 6.31 12.51 6.31C13.1838 6.31 13.73 5.76378 13.73 5.09Z" fill="white"/>
</g>
<defs>
<clipPath id="clip0_180_1037">
<rect width="16" height="17" fill="white"/>
</clipPath>
</defs>
</svg>
