<svg width="22" height="17" viewBox="0 0 22 17" fill="none" xmlns="http://www.w3.org/2000/svg">
<path d="M3.00287e-09 2.12424C3.00287e-09 1.56085 0.217298 1.02055 0.604092 0.622174C0.990886 0.223803 1.51549 0 2.0625 0H14.4375C14.9845 0 15.5091 0.223803 15.8959 0.622174C16.2827 1.02055 16.5 1.56085 16.5 2.12424V4.24847H17.9025C18.2115 4.24876 18.5165 4.32055 18.795 4.45855C19.0734 4.59656 19.3182 4.79724 19.5112 5.04577L21.5476 7.66566C21.8406 8.04262 22.0002 8.51114 22 8.99401V12.0373C22 12.6007 21.7827 13.141 21.3959 13.5394C21.0091 13.9378 20.4845 14.1616 19.9375 14.1616H19.25C19.25 14.9127 18.9603 15.6332 18.4445 16.1643C17.9288 16.6955 17.2293 16.9939 16.5 16.9939C15.7707 16.9939 15.0712 16.6955 14.5555 16.1643C14.0397 15.6332 13.75 14.9127 13.75 14.1616H6.875C6.87579 14.5391 6.80329 14.913 6.66177 15.2612C6.52024 15.6095 6.31255 15.9251 6.05089 16.1895C5.78924 16.4539 5.4789 16.6617 5.13813 16.8008C4.79736 16.9399 4.43302 17.0074 4.06655 16.9994C3.70008 16.9913 3.33887 16.9079 3.00414 16.7541C2.66942 16.6002 2.36794 16.3789 2.11743 16.1033C1.86692 15.8277 1.67244 15.5033 1.54541 15.1492C1.41838 14.7951 1.36138 14.4183 1.37775 14.0412C0.974941 13.8952 0.626069 13.624 0.379286 13.2651C0.132503 12.9061 -2.30339e-05 12.4771 3.00287e-09 12.0373L3.00287e-09 2.12424ZM1.77925 12.6831C2.02785 12.2639 2.37808 11.9186 2.79551 11.681C3.21294 11.4434 3.68321 11.3218 4.1601 11.3281C4.63699 11.3343 5.10408 11.4683 5.51547 11.7168C5.92687 11.9653 6.2684 12.3198 6.5065 12.7454H14.1185C14.3604 12.3153 14.7074 11.9579 15.125 11.7088V2.12424C15.125 1.93644 15.0526 1.75634 14.9236 1.62355C14.7947 1.49076 14.6198 1.41616 14.4375 1.41616H2.0625C1.88016 1.41616 1.7053 1.49076 1.57636 1.62355C1.44743 1.75634 1.375 1.93644 1.375 2.12424V12.0373C1.37489 12.1736 1.41298 12.3071 1.48468 12.4216C1.55639 12.5362 1.65867 12.627 1.77925 12.6831ZM16.5 11.3293C16.9827 11.3293 17.4569 11.4601 17.875 11.7087C18.293 11.9573 18.6401 12.3149 18.8815 12.7454H19.9375C20.1198 12.7454 20.2947 12.6708 20.4236 12.538C20.5526 12.4052 20.625 12.2251 20.625 12.0373V8.9926C20.6247 8.83191 20.5714 8.6761 20.4738 8.55076L18.4387 5.93087C18.3745 5.84794 18.2929 5.78095 18.2001 5.73487C18.1072 5.68879 18.0055 5.66478 17.9025 5.66463H16.5V11.3293ZM4.125 12.7454C3.76033 12.7454 3.41059 12.8946 3.15273 13.1602C2.89487 13.4258 2.75 13.786 2.75 14.1616C2.75 14.5372 2.89487 14.8974 3.15273 15.1629C3.41059 15.4285 3.76033 15.5777 4.125 15.5777C4.48967 15.5777 4.83941 15.4285 5.09727 15.1629C5.35513 14.8974 5.5 14.5372 5.5 14.1616C5.5 13.786 5.35513 13.4258 5.09727 13.1602C4.83941 12.8946 4.48967 12.7454 4.125 12.7454ZM16.5 12.7454C16.1353 12.7454 15.7856 12.8946 15.5277 13.1602C15.2699 13.4258 15.125 13.786 15.125 14.1616C15.125 14.5372 15.2699 14.8974 15.5277 15.1629C15.7856 15.4285 16.1353 15.5777 16.5 15.5777C16.8647 15.5777 17.2144 15.4285 17.4723 15.1629C17.7301 14.8974 17.875 14.5372 17.875 14.1616C17.875 13.786 17.7301 13.4258 17.4723 13.1602C17.2144 12.8946 16.8647 12.7454 16.5 12.7454Z" fill="#475467"/>
</svg>
