<svg width="16" height="18" viewBox="0 0 16 18" fill="none" xmlns="http://www.w3.org/2000/svg">
<path d="M6.97331 0.358762C7.217 0.128371 7.53964 0 7.875 0C8.21036 0 8.533 0.128371 8.77669 0.358762L15.1344 6.3687C15.5282 6.74014 15.75 7.25857 15.75 7.79932V15.1099C15.75 15.6321 15.5426 16.1329 15.1734 16.5021C14.8042 16.8713 14.3034 17.0787 13.7812 17.0787H11.1562C10.8976 17.0787 10.6415 17.0277 10.4025 16.9287C10.1636 16.8297 9.9465 16.6846 9.76367 16.5016C9.58084 16.3186 9.43585 16.1015 9.33699 15.8624C9.23812 15.6234 9.18733 15.3673 9.1875 15.1086V11.8274C9.1875 11.6533 9.11836 11.4864 8.99529 11.3633C8.87222 11.2403 8.7053 11.1711 8.53125 11.1711H7.21875C7.0447 11.1711 6.87778 11.2403 6.75471 11.3633C6.63164 11.4864 6.5625 11.6533 6.5625 11.8274V15.1086C6.5625 15.6308 6.35508 16.1315 5.98587 16.5008C5.61665 16.87 5.11589 17.0774 4.59375 17.0774H1.96875C1.44661 17.0774 0.945846 16.87 0.576634 16.5008C0.207421 16.1315 0 15.6308 0 15.1086V7.79801C0 7.25726 0.223125 6.73882 0.616875 6.36739L6.97331 0.358762ZM7.875 1.31164L1.51725 7.32289C1.45271 7.38407 1.40128 7.45774 1.36608 7.53942C1.33088 7.6211 1.31265 7.70907 1.3125 7.79801V15.1086C1.3125 15.2827 1.38164 15.4496 1.50471 15.5727C1.62778 15.6957 1.7947 15.7649 1.96875 15.7649H4.59375C4.7678 15.7649 4.93472 15.6957 5.05779 15.5727C5.18086 15.4496 5.25 15.2827 5.25 15.1086V11.8274C5.25 11.3052 5.45742 10.8045 5.82663 10.4353C6.19585 10.0661 6.69661 9.85864 7.21875 9.85864H8.53125C9.0534 9.85864 9.55415 10.0661 9.92337 10.4353C10.2926 10.8045 10.5 11.3052 10.5 11.8274V15.1086C10.5 15.2827 10.5691 15.4496 10.6922 15.5727C10.8153 15.6957 10.9822 15.7649 11.1562 15.7649H13.7812C13.9553 15.7649 14.1222 15.6957 14.2453 15.5727C14.3684 15.4496 14.4375 15.2827 14.4375 15.1086V7.79801C14.4375 7.70885 14.4194 7.62063 14.3842 7.53871C14.349 7.4568 14.2975 7.38291 14.2327 7.32157L7.875 1.31164Z" fill="#475467"/>
</svg>
