<svg width="16" height="18" viewBox="0 0 16 18" fill="none" xmlns="http://www.w3.org/2000/svg">
<path d="M6.59986 0.48957C6.95582 0.173529 7.4078 0 7.875 0C8.3422 0 8.79418 0.173529 9.15014 0.48957L15.0564 5.73248C15.2738 5.9255 15.4484 6.16556 15.5682 6.43604C15.6879 6.70652 15.75 7.00096 15.75 7.29897V15.4983C15.75 15.9178 15.5904 16.3201 15.3064 16.6167C15.0224 16.9134 14.6372 17.08 14.2356 17.08H11.2092C10.8075 17.08 10.4223 16.9134 10.1383 16.6167C9.85429 16.3201 9.69473 15.9178 9.69473 15.4983V11.0697C9.69473 10.9858 9.66282 10.9053 9.60602 10.846C9.54922 10.7867 9.47218 10.7533 9.39185 10.7533H6.36058C6.28025 10.7533 6.20321 10.7867 6.14641 10.846C6.0896 10.9053 6.05769 10.9858 6.05769 11.0697V15.4983C6.05769 15.9178 5.89814 16.3201 5.61413 16.6167C5.33012 16.9134 4.94492 17.08 4.54327 17.08H1.51442C1.11277 17.08 0.727574 16.9134 0.443564 16.6167C0.159555 16.3201 0 15.9178 0 15.4983V7.29897C1.59384e-05 7.00096 0.0620541 6.70652 0.181818 6.43604C0.301582 6.16556 0.476209 5.9255 0.693606 5.73248L6.59986 0.48957Z" fill="#F9AE42"/>
</svg>
