<svg width="84" height="19" viewBox="0 0 84 19" fill="none" xmlns="http://www.w3.org/2000/svg">
<path d="M49.4055 0.987305H44.085V18.0129H49.4055V0.987305Z" fill="#231F20"/>
<path d="M23.0242 10.7391C22.4081 9.98771 21.5877 9.42382 20.6585 9.11307C21.3871 8.77641 22.0063 8.24704 22.4467 7.58415C22.852 6.9441 23.0617 6.20288 23.0506 5.44887C23.0609 4.8075 22.9042 4.17417 22.5953 3.60922C22.2865 3.04426 21.8358 2.56649 21.2861 2.22132C19.7099 1.31054 17.8916 0.887455 16.0676 1.00719H6.84131V17.995H16.5616C18.4537 18.1087 20.3387 17.6808 21.9888 16.7631C22.5826 16.3996 23.0686 15.8886 23.3979 15.2817C23.7272 14.6747 23.8882 13.9932 23.8647 13.3056C23.8881 12.3812 23.5917 11.4763 23.0242 10.7391ZM12.5636 5.01224H15.2772C16.5435 5.01224 17.1767 5.4329 17.1767 6.27424C17.1767 7.11557 16.5435 7.53624 15.2772 7.53624H12.5636V5.01224ZM16.0662 13.9914H12.5636V11.3222H16.0662C17.3493 11.3222 17.9908 11.7671 17.9908 12.6568C17.9908 13.5465 17.3493 13.9914 16.0662 13.9914Z" fill="#231F20"/>
<path d="M27.0525 15.9441C26.3257 15.1782 25.763 14.267 25.4001 13.2683C25.0372 12.2696 24.8819 11.2051 24.944 10.1422V0.987305H30.4577V9.97321C30.3823 10.9086 30.608 11.8435 31.1008 12.6368C31.3367 12.8991 31.6237 13.1085 31.9435 13.2518C32.2632 13.3951 32.6088 13.4691 32.9582 13.4691C33.3076 13.4691 33.6532 13.3951 33.973 13.2518C34.2927 13.1085 34.5797 12.8991 34.8157 12.6368C35.3084 11.8435 35.5341 10.9086 35.4588 9.97321V0.987305H40.8789V10.1422C40.941 11.2051 40.7857 12.2696 40.4228 13.2683C40.0598 14.267 39.4972 15.1782 38.7704 15.9441C37.0993 17.2842 35.0337 18.0129 32.9062 18.0129C30.7786 18.0129 28.713 17.2842 27.0419 15.9441H27.0525Z" fill="#231F20"/>
<path d="M51.5379 0.987305H57.4518V13.5614H65.367V18.0129H51.5337L51.5379 0.987305Z" fill="#231F20"/>
<path d="M82.3159 4.97783C81.5441 3.68597 80.4331 2.65949 79.1186 2.02372C77.6281 1.30811 76.0048 0.95476 74.3681 0.98966H66.4307V18.0106H74.3681C76.0048 18.0455 77.6281 17.6921 79.1186 16.9765C80.4333 16.3412 81.5444 15.3146 82.3159 14.0224C83.0631 12.6448 83.4563 11.0846 83.4563 9.49669C83.4563 7.90879 83.0631 6.34854 82.3159 4.97096V4.97783ZM76.9321 12.4782C76.5548 12.8399 76.1138 13.1194 75.6342 13.3008C75.1546 13.4823 74.6459 13.562 74.1371 13.5356H71.8585V5.46466H74.1371C74.6459 5.43822 75.1546 5.51799 75.6342 5.69942C76.1138 5.88085 76.5548 6.16038 76.9321 6.52204C77.6078 7.35018 77.9795 8.40729 77.9795 9.50079C77.9795 10.5943 77.6078 11.6501 76.9321 12.4782Z" fill="#231F20"/>
<path d="M0.456543 6.47316V10.5642L5.77706 5.07427V0.987305L0.456543 6.47316Z" fill="#231F20"/>
<path d="M5.77706 18.0127V6.30762L0.456543 11.9106V18.0127H5.77706Z" fill="#231F20"/>
</svg>
