<svg width="17" height="17" viewBox="0 0 17 17" fill="none" xmlns="http://www.w3.org/2000/svg">
<path d="M6.68983 17C5.30712 17 4.18115 15.8086 4.18115 14.3438C4.18115 14.0505 4.40593 13.8125 4.68289 13.8125C4.95985 13.8125 5.18462 14.0505 5.18462 14.3438C5.18462 15.2229 5.8603 15.9375 6.68983 15.9375C7.51936 15.9375 8.19504 15.2229 8.19504 14.3438C8.19504 14.0505 8.41982 13.8125 8.69678 13.8125C8.97374 13.8125 9.19851 14.0505 9.19851 14.3438C9.19851 15.8086 8.07267 17 6.68983 17Z" fill="#475467"/>
<path d="M12.2089 14.875H1.17068C0.525132 14.875 0 14.3189 0 13.6354C0 13.2727 0.149198 12.9292 0.409376 12.6933C0.426157 12.6777 0.444164 12.6636 0.462905 12.6507C1.44494 11.7434 2.00694 10.4379 2.00694 9.05949V7.08326C2.00694 4.77629 3.48337 2.79578 5.59737 2.2666C5.86759 2.20071 6.13794 2.37568 6.20151 2.66193C6.26496 2.94739 6.09776 3.23351 5.82889 3.30083C4.16909 3.71587 3.01042 5.27135 3.01042 7.08326V9.05949C3.01042 10.7709 2.30191 12.3902 1.06839 13.5014C1.05835 13.51 1.04965 13.5178 1.03887 13.5256C1.02087 13.5497 1.00347 13.5865 1.00347 13.6354C1.00347 13.7317 1.07979 13.8125 1.17068 13.8125H12.2089C12.2999 13.8125 12.3762 13.7317 12.3762 13.6354C12.3762 13.5858 12.3588 13.5497 12.3401 13.5256C12.33 13.5178 12.3206 13.51 12.3113 13.5014C11.7119 12.9603 11.2388 12.3073 10.9058 11.56C10.7867 11.295 10.8937 10.9784 11.1445 10.8523C11.3975 10.7263 11.6938 10.841 11.8122 11.1059C12.0771 11.6981 12.4483 12.2181 12.918 12.653C12.9354 12.6657 12.9535 12.6792 12.9688 12.6933C13.2305 12.9292 13.3797 13.2727 13.3797 13.6354C13.3797 14.3189 12.8545 14.875 12.2089 14.875Z" fill="#475467"/>
<path d="M11.7072 9.20829C9.30961 9.20829 7.35889 7.14282 7.35889 4.60421C7.35889 2.06547 9.30961 0 11.7072 0C14.1049 0 16.0556 2.06547 16.0556 4.60421C16.0556 7.14282 14.1049 9.20829 11.7072 9.20829ZM11.7072 1.0625C9.86279 1.0625 8.36236 2.65132 8.36236 4.60421C8.36236 6.5571 9.86279 8.14579 11.7072 8.14579C13.5516 8.14579 15.0521 6.5571 15.0521 4.60421C15.0521 2.65132 13.5516 1.0625 11.7072 1.0625Z" fill="#475467"/>
<path d="M11.8744 6.72923C11.5974 6.72923 11.3726 6.49123 11.3726 6.19798V3.89581H11.0381C10.7612 3.89581 10.5364 3.65781 10.5364 3.36456C10.5364 3.07131 10.7612 2.83331 11.0381 2.83331H11.8744C12.1513 2.83331 12.3761 3.07131 12.3761 3.36456V6.19798C12.3761 6.49123 12.1513 6.72923 11.8744 6.72923Z" fill="#475467"/>
</svg>
