<svg width="16" height="22" viewBox="0 0 16 22" fill="none" xmlns="http://www.w3.org/2000/svg">
<path d="M14.8771 19.5412H14.5674V16.2282C14.5674 14.0023 11.9432 12.1725 10.1348 11C11.9432 9.82752 14.5674 7.99764 14.5674 5.77176V2.45882H14.8771C15.4964 2.45882 16 1.90753 16 1.22941C16 0.551296 15.4964 0 14.8771 0H1.12293C0.503575 0 0 0.551295 0 1.22941C0 1.90753 0.503575 2.45882 1.12293 2.45882H1.43263V5.77176C1.43263 7.90706 3.38062 9.74729 5.20093 11C3.38062 12.2527 1.43263 14.0929 1.43263 16.2282V19.5412H1.12293C0.503575 19.5412 0 20.0925 0 20.7706C0 21.4487 0.503575 22 1.12293 22H14.8771C15.4964 22 16 21.4487 16 20.7706C16 20.0925 15.4964 19.5412 14.8771 19.5412ZM13.8889 19.5412H12.9693V17.9779C12.9693 17.4887 12.669 16.9529 11.9976 16.3059C11.331 15.6536 10.2979 14.8849 8.82742 13.9402C8.64869 13.8248 8.53901 13.6145 8.53901 13.3872V9.99576L9.05436 9.66187C10.7801 8.55671 12.4066 7.50847 12.8085 6.52493C12.8558 6.41105 12.8463 6.27647 12.7801 6.17294C12.7187 6.06423 12.6099 5.99953 12.4941 5.99953H3.50592C3.39008 5.99953 3.28135 6.06423 3.21988 6.17294C3.15368 6.27647 3.14421 6.41105 3.19148 6.52493C3.59339 7.50847 5.21986 8.55671 6.94564 9.66187L7.46099 9.99576V13.3872C7.46099 13.6145 7.35131 13.8248 7.17258 13.9402C4.23407 15.8322 3.03074 17.0047 3.03074 17.9779V19.5412H2.11115V16.2282C2.11115 14.1525 4.56501 12.2631 6.02835 11.3209C6.13239 11.2536 6.19622 11.132 6.19622 11C6.19622 10.868 6.13239 10.7463 6.02835 10.6791C4.56501 9.73694 2.11115 7.84753 2.11115 5.77176V2.45882H13.8889V5.77176C13.8889 7.72588 10.9858 9.58941 9.42554 10.5911L9.29077 10.6791C9.18676 10.7463 9.12293 10.868 9.12293 11C9.12293 11.132 9.18676 11.2536 9.29077 11.3209L9.42554 11.4089C10.9858 12.4106 13.8889 14.2741 13.8889 16.2282V19.5412Z" fill="#F9AE42"/>
</svg>
