<svg width="17" height="17" viewBox="0 0 17 17" fill="none" xmlns="http://www.w3.org/2000/svg">
<path d="M4.72266 10.0947H12.2773C13.2897 10.0947 14.2638 10.4713 15.0107 11.1475L15.1572 11.2871C15.9209 12.0508 16.3496 13.087 16.3496 14.167C16.3495 14.6737 16.1739 15.1623 15.8555 15.5508L15.7109 15.7109C15.3016 16.1203 14.7459 16.3495 14.167 16.3496H2.83301C2.32632 16.3495 1.8377 16.1739 1.44922 15.8555L1.28906 15.7109C0.879685 15.3016 0.650477 14.7459 0.650391 14.167L0.655273 13.9648C0.701852 13.0255 1.07193 12.1308 1.70312 11.4336L1.84277 11.2871C2.60646 10.5235 3.64266 10.0947 4.72266 10.0947ZM8.5 0.650391C9.27774 0.650391 10.0258 0.939406 10.5996 1.45898L10.7119 1.56641C11.2982 2.15285 11.6278 2.94809 11.6279 3.77734C11.6279 4.55507 11.3379 5.30318 10.8184 5.87695L10.7119 5.98926C10.1253 6.57583 9.32954 6.90527 8.5 6.90527C7.72229 6.90527 6.97416 6.61623 6.40039 6.09668L6.28809 5.98926C5.70165 5.40271 5.37207 4.60678 5.37207 3.77734C5.37218 2.9998 5.66221 2.25237 6.18164 1.67871L6.28809 1.56641C6.87466 0.979834 7.67046 0.650391 8.5 0.650391Z" fill="#475467"/>
</svg>
